<svg xmlns="http://www.w3.org/2000/svg" viewBox="0 0 60 60">
  <title>tile_back - Île Maudite</title>
  <rect width="60" height="60" rx="4" ry="4" fill="#1D3557"/>
  <rect x="3" y="3" width="54" height="54" rx="3" ry="3" fill="#1D3557" stroke="#A8DADC" stroke-width="1.5"/>
  <rect x="6" y="6" width="48" height="48" rx="2" ry="2" fill="none" stroke="#457B9D" stroke-width="0.8" opacity="0.6"/>
  <line x1="6" y1="6" x2="54" y2="54" stroke="#457B9D" stroke-width="0.5" opacity="0.4"/>
  <line x1="54" y1="6" x2="6" y2="54" stroke="#457B9D" stroke-width="0.5" opacity="0.4"/>
  <circle cx="30" cy="30" r="14" fill="none" stroke="#A8DADC" stroke-width="1.2" opacity="0.7"/>
  <circle cx="30" cy="30" r="9" fill="none" stroke="#457B9D" stroke-width="0.8" opacity="0.6"/>
  <circle cx="30" cy="30" r="3" fill="#A8DADC" opacity="0.8"/>
  <polygon points="30,10 32.5,20 30,18 27.5,20" fill="#A8DADC" opacity="0.7"/>
  <polygon points="30,50 32.5,40 30,42 27.5,40" fill="#A8DADC" opacity="0.7"/>
  <polygon points="10,30 20,27.5 18,30 20,32.5" fill="#A8DADC" opacity="0.7"/>
  <polygon points="50,30 40,27.5 42,30 40,32.5" fill="#A8DADC" opacity="0.7"/>
  <path d="M22,16 Q30,12 38,16" fill="none" stroke="#F4A261" stroke-width="1" opacity="0.5"/>
  <path d="M22,44 Q30,48 38,44" fill="none" stroke="#F4A261" stroke-width="1" opacity="0.5"/>
  <path d="M16,22 Q12,30 16,38" fill="none" stroke="#F4A261" stroke-width="1" opacity="0.5"/>
  <path d="M44,22 Q48,30 44,38" fill="none" stroke="#F4A261" stroke-width="1" opacity="0.5"/>
  <text x="30" y="58" font-family="serif" font-size="4" fill="#A8DADC" text-anchor="middle" opacity="0.6">ÎLE MAUDITE</text>
</svg>