<svg xmlns="http://www.w3.org/2000/svg" viewBox="0 0 60 90">
  <title>Carte Action - Sprint</title>
  <rect width="60" height="90" rx="5" ry="5" fill="#F1FAEE" stroke="#1D3557" stroke-width="2"/>
  <rect x="4" y="4" width="52" height="82" rx="3" ry="3" fill="none" stroke="#1D3557" stroke-width="0.75"/>
  <rect x="6" y="6" width="48" height="20" rx="2" ry="2" fill="#1D3557"/>
  <text x="30" y="20" font-family="serif" font-size="8" font-weight="bold" fill="#F1FAEE" text-anchor="middle">SPRINT</text>
  <rect x="6" y="64" width="48" height="20" rx="2" ry="2" fill="#1D3557"/>
  <text x="30" y="72" font-family="serif" font-size="5" fill="#F1FAEE" text-anchor="middle">Déplacement</text>
  <text x="30" y="80" font-family="serif" font-size="5" fill="#F4A261" text-anchor="middle">+2 cases ce tour</text>
  <circle cx="30" cy="43" r="18" fill="#F4A261" opacity="0.15" stroke="#F4A261" stroke-width="1.5"/>
  <polygon points="18,46 28,30 28,40 42,40 32,56 32,46" fill="#F4A261" stroke="#E63946" stroke-width="0.75" stroke-linejoin="round"/>
  <line x1="14" y1="34" x2="20" y2="34" stroke="#F4A261" stroke-width="1.5" stroke-linecap="round"/>
  <line x1="12" y1="40" x2="17" y2="40" stroke="#F4A261" stroke-width="1.5" stroke-linecap="round"/>
  <line x1="14" y1="46" x2="19" y2="46" stroke="#F4A261" stroke-width="1.5" stroke-linecap="round"/>
  <line x1="40" y1="34" x2="46" y2="34" stroke="#F4A261" stroke-width="1.5" stroke-linecap="round"/>
  <line x1="43" y1="40" x2="48" y2="40" stroke="#F4A261" stroke-width="1.5" stroke-linecap="round"/>
  <line x1="41" y1="46" x2="46" y2="46" stroke="#F4A261" stroke-width="1.5" stroke-linecap="round"/>
</svg>